<?xml version="1.0" encoding="utf-8"?><svg viewBox="0 0 33 33" xmlns="http://www.w3.org/2000/svg" xmlns:xlink="http://www.w3.org/1999/xlink"><style>:root>svg{display:none}:root>svg:target{display:block}</style><svg fill="none" viewBox="0 0 18 10" id="Chevron_Right_1__(1)" xmlns="http://www.w3.org/2000/svg"><path d="M8.405 9.345L.913 1.85a.844.844 0 010-1.192.84.84 0 011.189 0L9 7.558 15.898.66a.84.84 0 111.19 1.192L9.594 9.345a.849.849 0 01-1.19 0z" fill="#A70F11"/></svg><svg viewBox="0 0 30 18" id="angle"><g clip-path="url(#bclip0_46_682)"><path d="M16.07 16.82L29.558 3.33a1.52 1.52 0 000-2.145 1.511 1.511 0 00-2.14 0L15.001 13.606 2.585 1.186a1.513 1.513 0 00-2.142 0 1.52 1.52 0 000 2.145l13.486 13.491a1.528 1.528 0 002.142-.001z" fill="inherit"/></g><defs><clipPath id="bclip0_46_682"><path fill="#fff" transform="rotate(90 15 15)" d="M0 0h18v30H0z"/></clipPath></defs></svg><svg viewBox="0 0 25 25" id="balance"><g clip-path="url(#cclip0_40_26)" fill="inherit"><path d="M12.5 19.355a2.868 2.868 0 00-2.84 2.45h5.68a2.867 2.867 0 00-2.84-2.45zM24.666 13.091L21.38 5.936h1.53a.418.418 0 100-.835h-8.045a2.422 2.422 0 00-4.732 0H2.088a.418.418 0 000 .835h1.531L.334 13.091A.418.418 0 000 13.51c0 2.372 1.915 4.3 4.287 4.315a4.343 4.343 0 004.315-4.287.501.501 0 00-.361-.474L4.956 5.936h5.15a2.45 2.45 0 001.837 1.977v10.551h.835V7.97a2.45 2.45 0 002.116-2.033h5.15l-3.285 7.127a.473.473 0 00-.361.446c0 2.372 1.915 4.3 4.287 4.315A4.37 4.37 0 0025 13.509a.418.418 0 00-.334-.418zm-17.344.084h-6.07L4.288 6.66l3.035 6.515zm10.356 0l3.035-6.515 3.034 6.515h-6.069z"/></g><defs><clipPath id="cclip0_40_26"><path fill="#fff" d="M0 0h25v25H0z"/></clipPath></defs></svg><svg fill="none" viewBox="0 0 30 20" id="burger" xmlns="http://www.w3.org/2000/svg"><path d="M0 1.274A.937.937 0 01.938.337h28.125a.938.938 0 010 1.875H.938A.937.937 0 010 1.274zm29.063 7.789H.938a.938.938 0 100 1.874h28.125a.938.938 0 000-1.874zM15 17.788H.937a.938.938 0 000 1.875H15a.937.937 0 100-1.875z" fill="#fff"/></svg><svg viewBox="0 0 25 25" id="cart"><path d="M5.469 21.094a2.347 2.347 0 002.343 2.343 2.347 2.347 0 002.344-2.343 2.347 2.347 0 00-2.344-2.344 2.347 2.347 0 00-2.343 2.344zm3.125 0c0 .43-.351.781-.781.781a.783.783 0 01-.782-.781.783.783 0 011.563 0zM19.531 21.094a2.347 2.347 0 00-2.343-2.344 2.347 2.347 0 00-2.344 2.344 2.347 2.347 0 002.344 2.343 2.347 2.347 0 002.343-2.343zm-3.125 0a.783.783 0 011.563 0c0 .43-.351.781-.781.781a.783.783 0 01-.782-.781zM3.203 2.344l1.342 12.745a2.339 2.339 0 002.33 2.098H19.05c1.098 0 2.062-.78 2.292-1.853l1.877-8.757c.099-.464-.015-.941-.314-1.309a1.557 1.557 0 00-1.215-.58H5.02L4.684 1.48a.782.782 0 00-.778-.7H1.562a.782.782 0 000 1.563h1.641zM21.69 6.25l-1.876 8.757a.787.787 0 01-.765.618H6.876a.78.78 0 01-.778-.7L5.185 6.25H21.69z" fill="inherit"/></svg><svg fill="none" viewBox="0 0 10 10" id="check-circle" xmlns="http://www.w3.org/2000/svg"><path d="M5 0C2.243 0 0 2.243 0 5s2.243 5 5 5 5-2.243 5-5-2.243-5-5-5zm2.794 3.684L4.6 6.854a.492.492 0 01-.69.013L2.219 5.326a.508.508 0 01-.038-.702.496.496 0 01.702-.025l1.341 1.228L7.08 2.97a.5.5 0 01.714 0c.201.2.201.514 0 .714z" fill="#719C7A"/></svg><svg viewBox="0 0 18 18" id="copy"><g clip-path="url(#gclip0_46_622)" fill="inherit"><path d="M12.857 3.214H1.93A1.929 1.929 0 000 5.143V16.07C0 17.137.863 18 1.929 18h10.928a1.929 1.929 0 001.929-1.928V5.142a1.929 1.929 0 00-1.929-1.928z"/><path d="M16.071 0H4.5C3.44 0 2.58.854 2.571 1.914v.015h10.286a3.218 3.218 0 013.214 3.214v10.286h.015A1.929 1.929 0 0018 13.5V1.929A1.929 1.929 0 0016.071 0z"/></g><defs><clipPath id="gclip0_46_622"><path fill="#fff" d="M0 0h18v18H0z"/></clipPath></defs></svg><svg viewBox="0 0 29 27" id="filter"><path fill-rule="evenodd" clip-rule="evenodd" d="M.906 4.112h13.505a4.505 4.505 0 01-.092-.888V3.2c0-.308.032-.609.091-.9H.907a.906.906 0 100 1.813zm12.089 9.385v.012a2.826 2.826 0 01-2.821 2.813 2.828 2.828 0 01-2.822-2.81v-.017a2.824 2.824 0 012.822-2.816 2.825 2.825 0 012.82 2.814v.004zm15.099-.903H14.589c.06.29.091.589.092.896v.024c-.001.305-.033.604-.092.892h13.505a.906.906 0 100-1.812zm-22.336 0H.906a.906.906 0 100 1.812h4.852a4.5 4.5 0 01-.092-.888v-.025c0-.308.032-.609.092-.9zm13.068 14.021a2.824 2.824 0 01-2.82-2.814v-.004-.012a2.826 2.826 0 012.82-2.813c1.55 0 2.815 1.26 2.822 2.81v.017a2.824 2.824 0 01-2.822 2.816zm9.268-3.727h-4.852c.06.29.091.589.092.895V23.808c-.001.305-.033.604-.092.892h4.852a.906.906 0 100-1.812zm-13.684 0H.907a.906.906 0 100 1.812h13.505a4.506 4.506 0 01-.092-.888v-.026c0-.307.032-.608.091-.898zm1.595-19.68v-.01A2.826 2.826 0 0118.826.384c1.55 0 2.815 1.26 2.822 2.81v.016a2.825 2.825 0 01-2.822 2.817 2.825 2.825 0 01-2.82-2.815v-.004zm7.237.904h4.852a.906.906 0 100-1.812h-4.852c.06.29.091.589.092.896v.024c-.001.305-.033.604-.092.892z"/></svg><svg viewBox="0 0 25 25" id="heart"><g clip-path="url(#iclip0_109_58)" fill="inherit"><path d="M12.5 23.61c-.356 0-.7-.13-.966-.364a288.72 288.72 0 00-2.843-2.445l-.005-.004c-2.518-2.146-4.693-4-6.206-5.826C.788 12.931 0 10.995 0 8.881c0-2.055.704-3.95 1.983-5.337 1.294-1.404 3.07-2.177 5-2.177 1.444 0 2.766.456 3.929 1.356A8.035 8.035 0 0112.5 4.381a8.038 8.038 0 011.588-1.658c1.164-.9 2.485-1.356 3.928-1.356 1.93 0 3.707.773 5 2.177C24.297 4.93 25 6.826 25 8.88c0 2.115-.788 4.05-2.48 6.091-1.513 1.826-3.687 3.68-6.206 5.826-.86.733-1.835 1.564-2.848 2.45-.267.233-.61.362-.966.362zM6.984 2.831c-1.517 0-2.91.605-3.924 1.704-1.03 1.116-1.596 2.66-1.596 4.344 0 1.779.661 3.369 2.143 5.157 1.432 1.728 3.563 3.544 6.03 5.646l.004.003c.862.735 1.84 1.569 2.857 2.458a343.667 343.667 0 012.866-2.462c2.467-2.102 4.597-3.917 6.03-5.645 1.48-1.788 2.142-3.378 2.142-5.157 0-1.685-.567-3.228-1.596-4.344a5.274 5.274 0 00-3.924-1.704c-1.111 0-2.131.353-3.032 1.05-.803.62-1.362 1.406-1.69 1.955a.917.917 0 01-.794.451.917.917 0 01-.794-.451c-.328-.55-.887-1.335-1.69-1.956-.9-.696-1.921-1.05-3.032-1.05z"/><path d="M1.5 6.5l-1 3 1 2.5L3 14l4 4 5.5 5 6-5.5 3.5-4 1.5-3v-3l-1-2-2-2-2-1-3 .5L14 4l-1.5 1.5L12 5l-.5-1L9 3l-3-.5-1.5 1-2 1-1 2z" stroke="inherit"/></g><defs><clipPath id="iclip0_109_58"><path fill="#fff" d="M0 0h25v25H0z"/></clipPath></defs></svg><svg viewBox="0 0 33 33" id="instagram"><path d="M23.954 0H9.046C4.058 0 0 4.058 0 9.047v14.907C0 28.942 4.058 33 9.046 33h14.908C28.942 33 33 28.942 33 23.954V9.047C33 4.058 28.942 0 23.954 0zm7.097 23.954a7.106 7.106 0 01-7.097 7.097H9.046a7.106 7.106 0 01-7.097-7.097V9.047a7.106 7.106 0 017.097-7.098h14.908a7.106 7.106 0 017.097 7.098v14.907z" fill="inherit"/><path d="M16.5 7.449c-4.99 0-9.051 4.06-9.051 9.05 0 4.992 4.06 9.052 9.051 9.052 4.99 0 9.051-4.06 9.051-9.051 0-4.991-4.06-9.051-9.051-9.051zm0 16.153A7.11 7.11 0 019.398 16.5 7.11 7.11 0 0116.5 9.397a7.11 7.11 0 017.102 7.103 7.11 7.11 0 01-7.102 7.102zM26.093 4.157a2.753 2.753 0 00-2.75 2.75 2.753 2.753 0 002.75 2.75 2.753 2.753 0 002.75-2.75 2.753 2.753 0 00-2.75-2.75zm0 3.552a.802.802 0 010-1.603.802.802 0 010 1.603z" fill="inherit"/></svg><svg viewBox="0 0 12 14" id="loc"><path d="M6 0A5.076 5.076 0 00.93 5.07c0 3.47 4.537 8.563 4.73 8.778a.457.457 0 00.68 0c.193-.215 4.73-5.308 4.73-8.778A5.076 5.076 0 006 0zm0 7.621a2.554 2.554 0 01-2.55-2.55A2.554 2.554 0 016 2.518 2.554 2.554 0 018.55 5.07 2.554 2.554 0 016 7.621z" fill="inherit"/></svg><svg viewBox="0 0 28 28" id="loc-circle"><circle cx="14" cy="14" r="14" fill="#A70F11"/><g clip-path="url(#lclip0_302_3)"><path d="M14.359 7.18a5.206 5.206 0 00-5.2 5.2c0 3.558 4.653 8.783 4.852 9.003a.468.468 0 00.696 0c.198-.22 4.852-5.444 4.852-9.003 0-2.867-2.333-5.2-5.2-5.2zm0 7.816a2.62 2.62 0 01-2.616-2.616 2.62 2.62 0 012.616-2.616 2.62 2.62 0 012.616 2.616 2.62 2.62 0 01-2.616 2.616z" fill="#fff"/></g><defs><clipPath id="lclip0_302_3"><path fill="#fff" transform="translate(7.18 7.18)" d="M0 0h14.359v14.359H0z"/></clipPath></defs></svg><svg viewBox="0 0 16 16" id="phone-call"><g clip-path="url(#mclip0_40_39)" fill="inherit"><path d="M11.725 10.465a1.502 1.502 0 00-2.125 0l-.725.725A13.073 13.073 0 016.62 9.38a13.07 13.07 0 01-1.81-2.255l.725-.725a1.5 1.5 0 000-2.125L4.12 2.865a1.465 1.465 0 00-1.055-.44A1.5 1.5 0 002 2.865l-.68.675A3.185 3.185 0 00.5 6.165c.16 1.875 1.39 4.13 3.285 6.03 1.895 1.9 4.175 3.125 6.05 3.305.14.007.28.007.42 0a3.036 3.036 0 002.205-.82l.675-.68a1.5 1.5 0 000-2.12l-1.41-1.415zM13.3 2.695A7.46 7.46 0 008 .5a.5.5 0 100 1 6.5 6.5 0 016.5 6.555.5.5 0 101 0 7.457 7.457 0 00-2.2-5.36z"/><path d="M10.455 5.555a3.001 3.001 0 01.885 2.155.5.5 0 001 0 4.001 4.001 0 00-4-4.05.5.5 0 000 1 3 3 0 012.115.895z"/></g><defs><clipPath id="mclip0_40_39"><path fill="inherit" d="M0 0h16v16H0z"/></clipPath></defs></svg><svg viewBox="0 0 16 16" id="search"><g clip-path="url(#nclip0_40_45)" fill="inherit"><path d="M7.046 0A7.054 7.054 0 000 7.046a7.054 7.054 0 007.046 7.046 7.054 7.054 0 007.046-7.046A7.054 7.054 0 007.046 0zm0 12.791a5.752 5.752 0 01-5.745-5.745 5.752 5.752 0 015.745-5.745 5.752 5.752 0 015.745 5.745 5.752 5.752 0 01-5.745 5.745z"/><path d="M15.81 14.89l-3.73-3.73a.65.65 0 10-.92.92l3.73 3.73a.648.648 0 00.92 0 .65.65 0 000-.92z"/></g><defs><clipPath id="nclip0_40_45"><path fill="#fff" d="M0 0h16v16H0z"/></clipPath></defs></svg><svg fill="none" viewBox="0 0 28 28" id="tel" xmlns="http://www.w3.org/2000/svg"><circle cx="14" cy="14" r="14" fill="#2F2F2F"/><path d="M18.306 15.376a1.37 1.37 0 00-1.945 0l-.664.665a11.97 11.97 0 01-2.064-1.66 11.979 11.979 0 01-1.657-2.07l.663-.664a1.376 1.376 0 000-1.95l-1.295-1.293A1.341 1.341 0 0010.378 8a1.37 1.37 0 00-.975.404l-.622.619a2.923 2.923 0 00-.751 2.408c.147 1.72 1.273 3.789 3.007 5.532 1.735 1.743 3.822 2.867 5.54 3.032.127.007.255.007.384 0a2.773 2.773 0 002.018-.752l.618-.624a1.376 1.376 0 00.403-.977 1.347 1.347 0 00-.403-.968l-1.29-1.298z" fill="#fff"/></svg><svg fill="none" viewBox="0 0 28 28" id="telegram"><path d="M14 28c7.734 0 14-6.266 14-14S21.734 0 14 0 0 6.266 0 14s6.266 14 14 14zM6.406 13.697l13.499-5.205c.626-.226 1.173.153.97 1.1h.001l-2.298 10.827c-.17.768-.626.954-1.265.593l-3.5-2.58-1.688 1.627c-.186.186-.344.344-.706.344l.249-3.562 6.487-5.86c.282-.249-.063-.389-.436-.142l-8.016 5.047-3.455-1.077c-.75-.239-.767-.75.158-1.112z" fill="#009CB1"/></svg><svg viewBox="0 0 13 13" id="time"><path d="M7.813 11.84c-.107.027-.216.051-.325.071a.523.523 0 00.19 1.028c.13-.024.26-.052.388-.084a.522.522 0 10-.253-1.014zM11.678 4.836a.52.52 0 00.66.332.523.523 0 00.332-.66 6.504 6.504 0 00-.136-.373.523.523 0 10-.97.388c.04.103.08.208.114.313zM9.511 11.095c-.092.06-.187.12-.283.175a.523.523 0 00.522.905c.114-.066.228-.136.337-.208a.523.523 0 00-.576-.873zM12.995 6.295a.523.523 0 00-1.044.041c.004.11.005.223.002.333a.522.522 0 101.045.023 6.469 6.469 0 00-.003-.397zM11.593 9.72a.522.522 0 00-.732.104 5.455 5.455 0 01-.208.26.523.523 0 00.796.678c.085-.1.169-.205.248-.31a.523.523 0 00-.104-.732zM12.36 7.83a.522.522 0 00-.654.343 5.6 5.6 0 01-.11.314.523.523 0 00.977.373c.047-.124.09-.25.13-.374a.523.523 0 00-.342-.655zM5.533 11.916a5.399 5.399 0 01-1.34-.426l-.015-.008a5.802 5.802 0 01-.299-.151 5.46 5.46 0 01-.497-9.257l.019-.014a5.463 5.463 0 016.122-.05l-.408.59c-.114.165-.044.285.155.267l1.774-.159a.292.292 0 00.264-.382L10.832.61c-.054-.193-.19-.216-.304-.051l-.409.591a6.454 6.454 0 00-5.224-.9h-.003l-.02.006A6.444 6.444 0 001.3 2.65l-.022.027a6.155 6.155 0 00-.226.326l-.014.025a6.443 6.443 0 00-1.03 3.8v.014c.006.13.016.264.03.394 0 .009.003.017.004.025a6.45 6.45 0 001.874 3.893l.007.007.003.002c.255.252.533.485.832.696a6.442 6.442 0 002.592 1.085.522.522 0 10.184-1.03z" fill="inherit"/><path d="M6.18 2.325a.423.423 0 00-.424.423V6.96L9.61 8.952a.42.42 0 00.57-.181.423.423 0 00-.182-.57L6.602 6.446V2.748a.423.423 0 00-.423-.423z" fill="inherit"/></svg><svg fill="none" viewBox="0 0 28 28" id="viber" xmlns="http://www.w3.org/2000/svg"><path d="M14 0C6.265 0 0 6.265 0 14c0 3.08.98 5.915 2.66 8.225L.735 27.3 6.3 25.69A13.851 13.851 0 0014 28c7.735 0 14-6.265 14-14S21.735 0 14 0zm7.455 19.81l-1.505 1.47c-1.575 1.575-5.74-.14-9.415-3.85-3.675-3.675-5.32-7.84-3.85-9.38L8.19 6.545c.56-.56 1.505-.56 2.1 0l2.205 2.205c.77.77.455 2.1-.56 2.415-.7.245-1.19 1.015-.945 1.715.385 1.645 2.52 3.675 4.095 4.06.7.175 1.505-.245 1.715-.945.315-1.015 1.645-1.33 2.415-.56l2.205 2.205c.56.595.56 1.54.035 2.17z" fill="#794C95"/></svg></svg>