<svg width="25" height="25" viewBox="0 0 25 25">
<g clip-path="url(#clip0_40_26)">
<path d="M12.5 19.3551C11.0766 19.3538 9.86762 20.3967 9.66034 21.805H15.3396C15.1323 20.3967 13.9234 19.3537 12.5 19.3551Z" fill="inherit"/>
<path d="M24.6658 13.0912L21.3808 5.93648H22.9119C23.1426 5.93648 23.3296 5.74949 23.3296 5.51887C23.3296 5.28825 23.1426 5.10126 22.9119 5.10126H14.8663C14.5811 3.79436 13.2905 2.96607 11.9836 3.25126C11.0583 3.45317 10.3355 4.17594 10.1336 5.10126H2.08801C1.85739 5.10126 1.67041 5.28825 1.67041 5.51887C1.67041 5.74949 1.85739 5.93648 2.08801 5.93648H3.6192L0.334141 13.0912C0.136554 13.1315 -0.00401553 13.3072 8.75266e-05 13.5088C3.42401e-05 15.8812 1.9151 17.8086 4.28736 17.8239C6.65349 17.809 8.57218 15.9027 8.6025 13.5367C8.59893 13.3166 8.45207 13.1246 8.24058 13.0634L4.95552 5.93642H10.1058C10.2675 6.90363 10.9904 7.68129 11.9432 7.91303V18.4642H12.7784V7.96872C13.8562 7.83513 14.7173 7.00796 14.8942 5.93642H20.0445L16.7594 13.0633C16.5523 13.1134 16.4041 13.2957 16.3975 13.5088C16.3975 15.8811 18.3125 17.8085 20.6848 17.8239C23.0554 17.7939 24.9699 15.8794 24.9999 13.5088C25.004 13.3072 24.8634 13.1315 24.6658 13.0912ZM7.32187 13.1747H1.25285L4.28736 6.66027L7.32187 13.1747ZM17.6782 13.1747L20.7127 6.66027L23.7472 13.1747H17.6782Z" fill="inherit"/>
</g>
<defs>
<clipPath id="clip0_40_26">
<rect width="25" height="25" fill="white"/>
</clipPath>
</defs>
</svg>
