<svg width="30" height="20" viewBox="0 0 30 20" fill="none" xmlns="http://www.w3.org/2000/svg">
<path d="M0 1.27429C0 1.02565 0.0987721 0.787194 0.274587 0.611379C0.450403 0.435564 0.68886 0.336792 0.9375 0.336792H29.0625C29.3111 0.336792 29.5496 0.435564 29.7254 0.611379C29.9012 0.787194 30 1.02565 30 1.27429C30 1.52293 29.9012 1.76139 29.7254 1.9372C29.5496 2.11302 29.3111 2.21179 29.0625 2.21179H0.9375C0.68886 2.21179 0.450403 2.11302 0.274587 1.9372C0.0987721 1.76139 0 1.52293 0 1.27429ZM29.0625 9.06252H0.9375C0.68886 9.06252 0.450403 9.16129 0.274587 9.3371C0.0987721 9.51292 0 9.75137 0 10C0 10.2487 0.0987721 10.4871 0.274587 10.6629C0.450403 10.8387 0.68886 10.9375 0.9375 10.9375H29.0625C29.3111 10.9375 29.5496 10.8387 29.7254 10.6629C29.9012 10.4871 30 10.2487 30 10C30 9.75137 29.9012 9.51292 29.7254 9.3371C29.5496 9.16129 29.3111 9.06252 29.0625 9.06252ZM15 17.7882H0.9375C0.68886 17.7882 0.450403 17.887 0.274587 18.0628C0.0987721 18.2386 0 18.4771 0 18.7257C0 18.9744 0.0987721 19.2128 0.274587 19.3886C0.450403 19.5645 0.68886 19.6632 0.9375 19.6632H15C15.2486 19.6632 15.4871 19.5645 15.6629 19.3886C15.8387 19.2128 15.9375 18.9744 15.9375 18.7257C15.9375 18.4771 15.8387 18.2386 15.6629 18.0628C15.4871 17.887 15.2486 17.7882 15 17.7882Z" fill="white"/>
</svg>
