<svg width="18" height="18" viewBox="0 0 18 18">
<g clip-path="url(#clip0_46_622)">
<path d="M12.8571 3.21436H1.92857C0.86345 3.21436 0 4.07781 0 5.14293V16.0715C0 17.1366 0.86345 18 1.92857 18H12.8571C13.9222 18 14.7857 17.1366 14.7857 16.0715V5.14293C14.7857 4.07781 13.9222 3.21436 12.8571 3.21436Z" fill="inherit"/>
<path d="M16.0714 1.24529e-09H4.49998C3.44062 -3.76661e-05 2.57955 0.854447 2.57141 1.91377C2.57141 1.91893 2.57141 1.92341 2.57141 1.92857H12.8571C14.6315 1.93068 16.0693 3.36852 16.0714 5.14284V15.4286C16.0766 15.4286 16.081 15.4286 16.0862 15.4286C17.1456 15.4204 18 14.5593 18 13.5V1.92857C18 0.86345 17.1365 1.24529e-09 16.0714 1.24529e-09Z" fill="inherit"/>
</g>
<defs>
<clipPath id="clip0_46_622">
<rect width="18" height="18" fill="white"/>
</clipPath>
</defs>
</svg>
