<svg width="29" height="27" viewBox="0 0 29 27">
<path fill-rule="evenodd" clip-rule="evenodd" d="M0.90625 4.11233H14.4112C14.3522 3.82517 14.3204 3.5282 14.3191 3.22421L14.3192 3.19878C14.3196 2.89105 14.3511 2.59046 14.4105 2.29989H0.90625C0.405604 2.29989 0 2.70544 0 3.20614C0 3.70684 0.405547 4.11245 0.90625 4.11233ZM12.9947 13.4973V13.5087C12.99 15.0598 11.7243 16.3215 10.1738 16.3215C8.62472 16.3214 7.35892 15.0611 7.35229 13.5113L7.35235 13.4954C7.35428 11.9415 8.61934 10.6785 10.1738 10.6785C11.7269 10.6785 12.9913 11.9409 12.9947 13.4934V13.4973ZM28.0938 12.5938H14.5894C14.6487 12.8833 14.6802 13.1828 14.6809 13.4895V13.4958V13.5138C14.68 13.8193 14.6483 14.1178 14.5891 14.4063L28.0938 14.4063C28.5945 14.4063 29 14.0008 29 13.5001C29 12.9993 28.5945 12.5938 28.0938 12.5938ZM5.75752 12.5938H0.90625C0.405604 12.5938 0 12.9994 0 13.5001C0 14.0007 0.405547 14.4063 0.90625 14.4063L5.75826 14.4063C5.69918 14.1191 5.6674 13.8221 5.6661 13.5181L5.66616 13.4926C5.66655 13.1849 5.69805 12.8843 5.75752 12.5938ZM18.8262 26.6153C17.2731 26.6153 16.0087 25.353 16.0053 23.8005V23.7965C16.0053 23.7926 16.0053 23.7892 16.0053 23.7853C16.01 22.234 17.2757 20.9724 18.8262 20.9724C20.3753 20.9724 21.641 22.2328 21.6476 23.7826L21.6477 23.7985C21.6457 25.3522 20.3806 26.6154 18.8262 26.6153ZM28.0938 22.8876H23.2424C23.3017 23.1772 23.3332 23.4767 23.3338 23.7833V23.7896V23.8076C23.3329 24.1132 23.3013 24.4115 23.242 24.7001H28.0938C28.5945 24.7001 29 24.2945 29 23.7938C29 23.2932 28.5945 22.8876 28.0938 22.8876ZM14.4105 22.8876H0.90625C0.405604 22.8876 0 23.2932 0 23.7939C0 24.2946 0.405547 24.7002 0.90625 24.7002H14.4112C14.3522 24.413 14.3204 24.116 14.3191 23.8119L14.3192 23.7865C14.3196 23.4787 14.3511 23.1782 14.4105 22.8876ZM16.0053 3.2088C16.0053 3.20472 16.0053 3.2015 16.0053 3.19747C16.01 1.64631 17.2757 0.384644 18.8262 0.384644C20.3753 0.384587 21.641 1.64507 21.6476 3.19487L21.6477 3.21073C21.645 4.76387 20.3806 6.02764 18.8262 6.02764C17.2731 6.02764 16.0086 4.76517 16.0053 3.21277V3.2088ZM23.2421 4.11245L28.0938 4.11233C28.5945 4.11233 29 3.70684 29 3.20614C29 2.70538 28.5945 2.29989 28.0938 2.29989H23.2424C23.3017 2.58944 23.3332 2.88895 23.3338 3.19555V3.20183V3.2199C23.333 3.52548 23.3013 3.82386 23.2421 4.11245Z"/>
</svg>
