<svg width="28" height="28" viewBox="0 0 28 28">
<circle cx="14" cy="14" r="14" fill="#A70F11"/>
<g clip-path="url(#clip0_302_3)">
<path d="M14.359 7.17969C11.4915 7.17969 9.15869 9.51252 9.15869 12.3799C9.15869 15.9385 13.8124 21.1627 14.0106 21.3833C14.1967 21.5906 14.5216 21.5902 14.7074 21.3833C14.9055 21.1627 19.5592 15.9385 19.5592 12.3799C19.5592 9.51252 17.2264 7.17969 14.359 7.17969ZM14.359 14.9963C12.9163 14.9963 11.7426 13.8226 11.7426 12.3799C11.7426 10.9373 12.9163 9.76357 14.359 9.76357C15.8016 9.76357 16.9753 10.9373 16.9753 12.38C16.9753 13.8226 15.8016 14.9963 14.359 14.9963Z" fill="white"/>
</g>
<defs>
<clipPath id="clip0_302_3">
<rect width="14.359" height="14.359" fill="white" transform="translate(7.1795 7.17969)"/>
</clipPath>
</defs>
</svg>
