<svg width="16" height="16" viewBox="0 0 16 16">
<g clip-path="url(#clip0_40_39)">
<path d="M11.7251 10.465C11.5857 10.3251 11.4201 10.2142 11.2378 10.1384C11.0555 10.0627 10.86 10.0238 10.6626 10.0238C10.4652 10.0238 10.2697 10.0627 10.0873 10.1384C9.90502 10.2142 9.73943 10.3251 9.60008 10.465L8.87508 11.19C8.05878 10.6719 7.30249 10.0648 6.62008 9.37995C5.9352 8.69754 5.32815 7.94125 4.81008 7.12495L5.53508 6.39995C5.67492 6.2606 5.78587 6.09501 5.86158 5.91268C5.93729 5.73035 5.97626 5.53487 5.97626 5.33745C5.97626 5.14003 5.93729 4.94455 5.86158 4.76222C5.78587 4.57989 5.67492 4.41431 5.53508 4.27495L4.12008 2.86495C3.98269 2.72465 3.8185 2.6134 3.63726 2.53781C3.45603 2.46222 3.26145 2.42384 3.06508 2.42495C2.86732 2.42447 2.67142 2.46309 2.48864 2.5386C2.30587 2.61412 2.13983 2.72503 2.00008 2.86495L1.32008 3.53995C0.995966 3.88843 0.754067 4.30512 0.612164 4.75939C0.470261 5.21365 0.431961 5.69394 0.500081 6.16495C0.660081 8.03995 1.89008 10.295 3.78508 12.195C5.68008 14.095 7.96008 15.32 9.83508 15.5C9.97498 15.5074 10.1152 15.5074 10.2551 15.5C10.6587 15.5169 11.0616 15.4531 11.4403 15.3123C11.8189 15.1715 12.1656 14.9565 12.4601 14.68L13.1351 14C13.275 13.8602 13.3859 13.6942 13.4614 13.5114C13.5369 13.3286 13.5756 13.1327 13.5751 12.935C13.5762 12.7386 13.5378 12.544 13.4622 12.3628C13.3866 12.1815 13.2754 12.0173 13.1351 11.88L11.7251 10.465Z" fill="inherit"/>
<path d="M13.3001 2.69502C12.6052 1.9975 11.7791 1.44443 10.8695 1.06771C9.95984 0.690978 8.98462 0.498039 8.00006 0.500015C7.86745 0.500015 7.74028 0.552693 7.64651 0.646462C7.55274 0.74023 7.50006 0.867407 7.50006 1.00002C7.50006 1.13262 7.55274 1.2598 7.64651 1.35357C7.74028 1.44734 7.86745 1.50002 8.00006 1.50002C8.8583 1.49998 9.70805 1.66992 10.5003 2.00001C11.2925 2.3301 12.0115 2.81381 12.6158 3.42323C13.2201 4.03264 13.6978 4.7557 14.0212 5.55068C14.3446 6.34566 14.5073 7.19681 14.5001 8.05502C14.5001 8.18763 14.5527 8.3148 14.6465 8.40857C14.7403 8.50234 14.8675 8.55502 15.0001 8.55502C15.1327 8.55502 15.2598 8.50234 15.3536 8.40857C15.4474 8.3148 15.5001 8.18763 15.5001 8.05502C15.5096 7.05998 15.3199 6.0731 14.9421 5.15255C14.5642 4.23199 14.0059 3.3964 13.3001 2.69502Z" fill="inherit"/>
<path d="M10.4551 5.55504C10.7388 5.83708 10.9633 6.17303 11.1153 6.54312C11.2673 6.91322 11.3437 7.30997 11.3401 7.71004C11.3401 7.84265 11.3928 7.96982 11.4865 8.06359C11.5803 8.15736 11.7075 8.21004 11.8401 8.21004C11.9727 8.21004 12.0999 8.15736 12.1936 8.06359C12.2874 7.96982 12.3401 7.84265 12.3401 7.71004C12.3467 7.18056 12.2481 6.65503 12.0501 6.16394C11.852 5.67285 11.5584 5.22598 11.1863 4.84923C10.8142 4.47248 10.371 4.17337 9.88246 3.96923C9.39387 3.76509 8.86961 3.65999 8.34009 3.66003C8.20748 3.66003 8.0803 3.71271 7.98653 3.80648C7.89277 3.90025 7.84009 4.02743 7.84009 4.16003C7.84009 4.29264 7.89277 4.41982 7.98653 4.51359C8.0803 4.60736 8.20748 4.66003 8.34009 4.66003C8.73413 4.663 9.12372 4.74357 9.48662 4.89714C9.84952 5.0507 10.1786 5.27426 10.4551 5.55504Z" fill="inherit"/>
</g>
<defs>
<clipPath id="clip0_40_39">
<rect width="16" height="16" fill="inherit"/>
</clipPath>
</defs>
</svg>
