<svg width="28" height="28" viewBox="0 0 28 28" fill="none" xmlns="http://www.w3.org/2000/svg">
<circle cx="14" cy="14" r="14" fill="#2F2F2F"/>
<path d="M18.3063 15.3758C18.1788 15.2475 18.0272 15.1457 17.8602 15.0763C17.6933 15.0068 17.5144 14.9711 17.3336 14.9711C17.1529 14.9711 16.9739 15.0068 16.807 15.0763C16.6401 15.1457 16.4885 15.2475 16.3609 15.3758L15.6972 16.0409C14.9499 15.5656 14.2575 15.0087 13.6328 14.3804C13.0058 13.7544 12.45 13.0606 11.9758 12.3117L12.6395 11.6466C12.7675 11.5188 12.8691 11.3669 12.9384 11.1996C13.0077 11.0324 13.0434 10.853 13.0434 10.6719C13.0434 10.4908 13.0077 10.3115 12.9384 10.1442C12.8691 9.97694 12.7675 9.82503 12.6395 9.69719L11.3441 8.40367C11.2183 8.27496 11.068 8.1729 10.9021 8.10356C10.7361 8.03421 10.558 7.999 10.3782 8.00002C10.1972 7.99958 10.0178 8.03501 9.85052 8.10429C9.68319 8.17356 9.53119 8.27531 9.40325 8.40367L8.78072 9.02291C8.484 9.3426 8.26254 9.72487 8.13263 10.1416C8.00272 10.5583 7.96766 10.9989 8.03002 11.431C8.1765 13.1511 9.30255 15.2199 11.0374 16.9629C12.7722 18.7059 14.8595 19.8297 16.5761 19.9949C16.7041 20.0017 16.8325 20.0017 16.9606 19.9949C17.3301 20.0104 17.699 19.9519 18.0456 19.8227C18.3922 19.6935 18.7096 19.4963 18.9792 19.2426L19.5972 18.6188C19.7253 18.4906 19.8268 18.3382 19.8959 18.1706C19.9651 18.0029 20.0004 17.8232 20 17.6418C20.001 17.4616 19.9659 17.2831 19.8967 17.1168C19.8275 16.9506 19.7256 16.8 19.5972 16.6739L18.3063 15.3758Z" fill="white"/>
</svg>
