<svg width="28" height="28" viewBox="0 0 28 28" fill="none">
<path d="M14.0001 28C21.7339 28 28.0001 21.7338 28.0001 14C28.0001 6.26617 21.7339 0 14.0001 0C6.26623 0 6.10352e-05 6.26617 6.10352e-05 14C6.10352e-05 21.7338 6.26623 28 14.0001 28ZM6.40623 13.6967L19.9046 8.49217C20.5311 8.26583 21.0782 8.645 20.8752 9.59233L20.8764 9.59117L18.5781 20.419C18.4077 21.1867 17.9516 21.3733 17.3134 21.0117L13.8134 18.4322L12.1252 20.0585C11.9386 20.2452 11.7811 20.4027 11.4194 20.4027L11.6679 16.8408L18.1546 10.9807C18.4369 10.7322 18.0916 10.5922 17.7194 10.8395L9.70323 15.8865L6.24756 14.8085C5.49739 14.5705 5.48106 14.0583 6.40623 13.6967Z" fill="#009CB1"/>
</svg>
