<svg width="13" height="13" viewBox="0 0 13 13">
<path d="M7.81318 11.8407C7.70598 11.8674 7.59669 11.8911 7.4882 11.9111C7.20462 11.9638 7.01714 12.2366 7.06959 12.5204C7.09549 12.66 7.1748 12.7764 7.28247 12.8523C7.39344 12.9304 7.53468 12.9657 7.67859 12.9389C7.80778 12.9149 7.93798 12.8867 8.06574 12.8548C8.34578 12.7851 8.51638 12.5014 8.44652 12.2215C8.37683 11.9414 8.09338 11.7709 7.81318 11.8407Z" fill="inherit"/>
<path d="M11.6778 4.83579C11.7144 4.94612 11.7843 5.03619 11.8726 5.09842C12.0035 5.19061 12.1747 5.22163 12.3382 5.16758C12.6122 5.07659 12.7607 4.7811 12.67 4.50722C12.6287 4.38236 12.5829 4.25711 12.5341 4.13516C12.4269 3.86716 12.1229 3.73669 11.8548 3.84389C11.5869 3.95103 11.4564 4.2551 11.5637 4.52317C11.6047 4.62567 11.6431 4.73089 11.6778 4.83579Z" fill="inherit"/>
<path d="M9.5113 11.0945C9.41911 11.1554 9.32395 11.2143 9.2281 11.2695C8.97802 11.4137 8.89237 11.7334 9.03657 11.9834C9.07572 12.0514 9.12786 12.1069 9.18792 12.1494C9.34913 12.2628 9.56808 12.2798 9.75037 12.1748C9.86433 12.1091 9.97764 12.0392 10.0874 11.9666C10.3282 11.8075 10.3944 11.4833 10.2353 11.2425C10.0762 11.0015 9.7521 10.9354 9.5113 11.0945Z" fill="inherit"/>
<path d="M12.995 6.29541C12.9836 6.00697 12.7407 5.78246 12.4521 5.79372C12.164 5.80509 11.9393 6.04813 11.9506 6.33647C11.9549 6.44671 11.9561 6.5586 11.9535 6.66873C11.9495 6.84962 12.0379 7.01086 12.1754 7.10777C12.2573 7.16545 12.3567 7.20036 12.4645 7.20281C12.753 7.20921 12.992 6.98043 12.9984 6.69184C13.0013 6.56025 13.0002 6.42692 12.995 6.29541Z" fill="inherit"/>
<path d="M11.5926 9.71971C11.3613 9.54617 11.034 9.59328 10.8608 9.82416C10.7944 9.91258 10.7246 9.99991 10.653 10.084C10.4661 10.3036 10.4925 10.6336 10.7122 10.8207C10.7247 10.8313 10.7373 10.841 10.7505 10.8502C10.9688 11.0041 11.2723 10.9688 11.4489 10.7616C11.5343 10.6613 11.6176 10.5569 11.6968 10.4513C11.8701 10.2205 11.8232 9.89299 11.5926 9.71971Z" fill="inherit"/>
<path d="M12.3607 7.83054C12.0853 7.74419 11.7921 7.8975 11.7058 8.1729C11.6727 8.27811 11.6361 8.38383 11.5966 8.48736C11.5098 8.71528 11.593 8.96606 11.7836 9.10045C11.8185 9.12501 11.857 9.14583 11.8989 9.16165C12.1685 9.26454 12.4704 9.12926 12.5732 8.85951C12.6202 8.73641 12.6637 8.61063 12.7031 8.48555C12.7893 8.21009 12.6361 7.91689 12.3607 7.83054Z" fill="inherit"/>
<path d="M5.53306 11.9158C5.06582 11.8319 4.61762 11.689 4.1926 11.4898C4.18757 11.4872 4.18307 11.4842 4.17779 11.4818C4.07764 11.4346 3.97765 11.3841 3.88074 11.3314C3.8804 11.331 3.87978 11.3307 3.87925 11.3305C3.70144 11.2326 3.5279 11.1242 3.35931 11.0056C0.900935 9.27382 0.309843 5.86487 2.0417 3.40652C2.41829 2.87216 2.87402 2.42635 3.38209 2.07301C3.38834 2.06865 3.3946 2.06432 3.40081 2.05993C5.19116 0.826332 7.62218 0.743196 9.52324 2.01084L9.11494 2.60078C9.00143 2.76499 9.07126 2.88465 9.26998 2.86676L11.0436 2.70798C11.2425 2.69009 11.3615 2.51798 11.308 2.32583L10.8317 0.609843C10.7784 0.417469 10.6419 0.394443 10.5283 0.558619L10.119 1.14996C8.72391 0.213443 7.05059 -0.143666 5.38974 0.144335C5.22246 0.173286 5.05753 0.20872 4.89486 0.249967C4.8936 0.250191 4.89259 0.25033 4.89159 0.250554C4.8853 0.252091 4.87893 0.254131 4.87281 0.255836C3.44063 0.623619 2.19107 1.45892 1.29943 2.65072C1.29191 2.65963 1.28417 2.66835 1.27707 2.67805C1.24742 2.71798 1.218 2.75884 1.18919 2.79969C1.14207 2.86665 1.09563 2.93528 1.0512 3.00392C1.04563 3.01219 1.04139 3.0206 1.03652 3.02895C0.300733 4.16914 -0.0541679 5.4873 0.0066962 6.82927C0.00683592 6.83369 0.00658442 6.83813 0.0066962 6.84266C0.0125926 6.97375 0.0229881 7.10666 0.0371003 7.23749C0.0378548 7.24593 0.0397272 7.25393 0.0411523 7.26237C0.0557396 7.39393 0.0740436 7.5258 0.0969864 7.65765C0.330159 9.00286 0.964734 10.2134 1.91562 11.1552C1.91782 11.1574 1.92012 11.1599 1.92235 11.1621C1.92313 11.163 1.924 11.1635 1.92475 11.1643C2.18023 11.4162 2.45811 11.6493 2.75732 11.86C3.54034 12.4118 4.41225 12.7765 5.34863 12.9445C5.63274 12.9956 5.90415 12.8065 5.95512 12.5225C6.00606 12.2383 5.8171 11.9667 5.53306 11.9158Z" fill="inherit"/>
<path d="M6.17935 2.32497C5.94565 2.32497 5.75635 2.51443 5.75635 2.7478V6.96042L9.60912 8.95209C9.67113 8.9842 9.73753 8.99931 9.80286 8.99931C9.95589 8.99931 10.1037 8.91598 10.1788 8.77059C10.286 8.56307 10.2049 8.30812 9.99739 8.20095L6.60188 6.44551V2.7478C6.60185 2.51443 6.41277 2.32497 6.17935 2.32497Z" fill="inherit"/>
</svg>
