<svg width="28" height="28" viewBox="0 0 28 28" fill="none" xmlns="http://www.w3.org/2000/svg">
<path d="M14.0001 0C6.26506 0 6.10352e-05 6.265 6.10352e-05 14C6.10352e-05 17.08 0.980061 19.915 2.66006 22.225L0.735061 27.3L6.30006 25.69C8.50506 27.16 11.1651 28 14.0001 28C21.7351 28 28.0001 21.735 28.0001 14C28.0001 6.265 21.7351 0 14.0001 0ZM21.4551 19.81L19.9501 21.28C18.3751 22.855 14.2101 21.14 10.5351 17.43C6.86006 13.755 5.21506 9.59 6.68506 8.05L8.19006 6.545C8.75006 5.985 9.69506 5.985 10.2901 6.545L12.4951 8.75C13.2651 9.52 12.9501 10.85 11.9351 11.165C11.2351 11.41 10.7451 12.18 10.9901 12.88C11.3751 14.525 13.5101 16.555 15.0851 16.94C15.7851 17.115 16.5901 16.695 16.8001 15.995C17.1151 14.98 18.4451 14.665 19.2151 15.435L21.4201 17.64C21.9801 18.235 21.9801 19.18 21.4551 19.81Z" fill="#794C95"/>
</svg>
