<svg width="330" height="71" viewBox="0 0 330 71" fill="none" xmlns="http://www.w3.org/2000/svg">
<path fill-rule="evenodd" clip-rule="evenodd" d="M17.3959 34.3686C19.1069 34.3686 20.773 34.6366 22.334 35.1252L23.8799 32.556C20.5478 29.2144 18.4765 24.5172 18.4765 19.3157C18.4765 9.22788 26.2964 1 35.8724 1C45.4634 1 53.2833 9.22788 53.2833 19.3157C53.2833 24.4384 51.257 29.0725 48.015 32.4141L49.591 35.0464C51.182 34.542 52.863 34.274 54.5891 34.274C64.1801 34.274 72 42.5019 72 52.5897C72 62.6618 64.1801 70.8897 54.5891 70.8897C46.2889 70.8897 39.3246 64.7266 37.5985 56.5303H34.4165C32.7205 64.7897 25.7261 71 17.3959 71C7.81989 71 0 62.7721 0 52.6843C0 42.5965 7.81989 34.3686 17.3959 34.3686ZM34.4165 56.5303H9.53096L22.334 35.1252C26.7167 36.4965 30.1989 39.5386 32.3602 43.4004C34.5216 47.2621 35.3621 51.9277 34.4165 56.5303ZM49.591 35.0464L62.469 56.5303H37.5985C36.5779 51.6755 37.5235 46.7262 39.955 42.7383C42.1163 39.1603 45.4634 36.3546 49.591 35.0464ZM48.015 32.4141C44.878 35.6296 40.6004 37.6156 35.8724 37.6156C31.2345 37.6156 27.0019 35.6926 23.8799 32.556L35.9925 12.3173L48.015 32.4141Z" fill="#912926"/>
<path fill-rule="evenodd" clip-rule="evenodd" d="M119.417 41.7037C119.417 41.2754 119.552 38.6739 119.145 37.6269C118.107 34.6605 115.381 33.8832 115.381 31.1548V13.1821C115.381 10.5013 113.74 8.58185 111.06 8.58185H96.1228C93.6232 8.58185 91.8163 10.9772 91.8163 13.2297V25.4124C91.8163 27.7126 91.0032 29.5209 90.5816 30.6789C89.633 33.2646 85.8687 34.9937 85.2664 37.1986C84.8598 38.769 85.0405 42.0844 85.0405 42.5603C85.0405 44.5273 84.3629 50 88.5489 50C90.672 50 91.7712 47.8426 91.9519 47.2716C92.3132 45.9708 93.0812 43.29 94.9934 43.1472C97.0864 43.0044 103.17 42.8458 103.621 42.8458C105.835 42.8458 111.15 42.7506 111.647 45.1142C112.294 48.2709 112.972 50 115.968 50C119.959 50 119.417 44.2417 119.417 41.7037ZM107.069 25.7456C107.069 27.8077 107.566 35.5171 102.341 35.5171C100.489 35.5171 98.3964 34.6129 98.3964 32.4556C98.3964 30.8217 99.345 29.5685 99.345 26.9353V20.3204C99.345 18.3217 100.806 16.1643 103.124 16.1643C107.34 16.1643 107.069 21.5736 107.069 25.7456ZM155.102 25.7456C155.102 15.2443 147.935 7.58249 137.621 7.58249C127.864 7.58249 120.139 14.7208 120.139 25.7456C120.139 36.1834 127.322 43.861 137.621 43.861C147.393 43.861 155.102 36.7227 155.102 25.7456ZM146.204 25.7456C146.204 30.4886 143.614 36.3261 137.621 36.3261C131.267 36.3261 129.038 29.9651 129.038 25.7456C129.038 19.8445 132.441 15.1015 137.621 15.1015C143.93 15.1015 146.204 21.4784 146.204 25.7456ZM194.146 39.3084C194.146 38.8166 191.933 20.8598 190.427 11.7544C189.93 8.8198 187.34 8.58185 185.654 8.58185C184.886 8.58185 183.395 8.58185 182.206 9.31155C181.257 9.88261 180.715 11.3103 180.489 11.9448C180.068 13.4201 179.435 15.5774 178.938 17.4492C178.396 19.559 177.673 23.5406 176.032 25.5076C175.897 25.6504 175.49 26.1263 174.993 26.1263C174.496 26.1263 174.03 25.6504 173.894 25.5076C172.268 23.5406 171.545 19.559 170.943 17.4492C170.491 15.5774 169.859 13.4201 169.407 11.9448C169.226 11.3103 168.684 9.88261 167.721 9.31155C166.546 8.58185 165.04 8.58185 164.272 8.58185C162.601 8.58185 159.966 8.8198 159.514 11.7544C158.009 20.8598 155.78 38.8166 155.78 39.3084C155.78 41.5609 156.428 42.8458 159.273 42.8458C162.962 42.8458 163.188 40.7836 163.956 36.0406C164.363 33.4074 164.543 31.4879 165.281 29.3306C165.507 28.6643 166.23 28.1885 166.591 28.1885C168.413 28.1885 169.181 31.6783 170.085 35.2792C170.988 38.9118 172.449 42.8458 174.993 42.8458C177.538 42.8458 178.893 38.9118 179.842 35.2792C180.76 31.6783 181.483 28.1885 183.35 28.1885C183.711 28.1885 184.434 28.6643 184.615 29.3306C185.338 31.4879 185.564 33.4074 185.97 36.0406C186.753 40.7836 186.979 42.8458 190.653 42.8458C193.469 42.8458 194.146 41.5609 194.146 39.3084ZM229.787 25.7456C229.787 15.2443 222.62 7.58249 212.305 7.58249C202.548 7.58249 194.824 14.7208 194.824 25.7456C194.824 36.1834 202.006 43.861 212.305 43.861C222.078 43.861 229.787 36.7227 229.787 25.7456ZM220.888 25.7456C220.888 30.4886 218.298 36.3261 212.305 36.3261C205.951 36.3261 203.723 29.9651 203.723 25.7456C203.723 19.8445 207.141 15.1015 212.305 15.1015C218.614 15.1015 220.888 21.4784 220.888 25.7456ZM259.345 33.4549C259.345 27.7602 254.948 26.6973 254.948 24.2069C254.948 22.335 257.447 21.0977 257.447 16.7354C257.447 11.4689 252.584 8.58185 248.82 8.58185H235.735C234.244 8.58185 232.512 9.69226 232.512 12.3255V39.5939C232.512 40.8788 233.657 42.8458 235.328 42.8458H250.175C255.806 42.8458 259.345 38.1028 259.345 33.4549ZM249.316 18.6072C249.316 21.6212 246.094 22.4302 244.769 22.4302C242.45 22.4302 241.005 20.9074 241.005 18.6072C241.005 16.2595 242.45 14.7208 244.769 14.7208C246.41 14.7208 249.316 15.9105 249.316 18.6072ZM250.491 32.5508C250.491 35.993 246.998 36.7227 245.176 36.7227C242.315 36.7227 241.005 35.2316 241.005 32.6459C241.005 29.5209 242.872 28.5692 245.266 28.5692C247.269 28.5692 250.491 29.5209 250.491 32.5508ZM296.13 25.7456C296.13 15.2443 288.947 7.58249 278.648 7.58249C268.876 7.58249 261.167 14.7208 261.167 25.7456C261.167 36.1834 268.334 43.861 278.648 43.861C288.405 43.861 296.13 36.7227 296.13 25.7456ZM287.231 25.7456C287.231 30.4886 284.641 36.3261 278.648 36.3261C272.294 36.3261 270.065 29.9651 270.065 25.7456C270.065 19.8445 273.468 15.1015 278.648 15.1015C284.957 15.1015 287.231 21.4784 287.231 25.7456ZM321.276 1.53871C321.276 0.396574 320.282 0 319.318 0C317.692 0 316.141 1.44353 313.928 1.44353C311.428 1.44353 309.922 0 308.432 0C307.468 0 306.384 0.396574 306.384 1.53871C306.384 5.18718 312.964 5.32995 313.928 5.32995C314.56 5.32995 321.276 4.80647 321.276 1.53871ZM329 38.8166V12.611C329 9.31155 325.823 8.58185 324.272 8.58185C322.495 8.58185 320.959 8.72462 319.77 10.1206C318.098 12.1827 316.412 15.0539 315.509 16.5926C315.102 17.3065 310.931 25.5076 308.703 25.5076C307.152 25.5076 306.745 22.7157 306.745 21.5736V12.2303C306.745 9.78744 305.029 8.58185 302.8 8.58185C301.746 8.58185 298.84 9.45431 298.84 12.3255V39.118C298.84 42.132 301.43 42.8458 303.297 42.8458C304.743 42.8458 306.565 42.8458 307.513 41.7513C310.796 37.8648 312.783 33.7881 315.192 29.7589C315.689 28.9023 317.285 25.7456 319.047 25.7456C320.824 25.7456 320.869 27.8077 320.869 28.9975V38.8642C320.869 41.3071 322.224 42.8458 324.904 42.8458C326.862 42.8458 329 42.132 329 38.8166Z" fill="#912926"/>
<path d="M95.8505 67.6933V69.9089H92.1463V67.6933C89.1648 67.5871 87.0718 66.8435 85.8521 65.4776C84.6174 64.1118 84 62.397 84 60.3331C84 58.1629 84.6475 56.4329 85.9274 55.1278C87.2073 53.8075 89.2853 53.0942 92.1463 52.988V51.1214H95.8505V52.988C98.8019 53.0942 100.895 53.8379 102.145 55.1885C103.379 56.5391 103.997 58.2692 103.997 60.3482C103.997 62.4121 103.379 64.127 102.145 65.4928C100.91 66.8586 98.8169 67.5871 95.8505 67.6933ZM95.8505 64.5216C96.8293 64.5216 97.6725 64.3546 98.3953 64.0208C99.103 63.7021 99.5999 63.2468 99.9011 62.6853C100.202 62.1238 100.353 61.3043 100.353 60.2268C100.353 57.5104 98.847 56.1597 95.8505 56.1597V64.5216ZM92.1463 64.5216V56.1597C90.5652 56.1597 89.4208 56.5088 88.7131 57.222C88.0054 57.9353 87.644 59.0128 87.644 60.4545C87.644 63.1709 89.1498 64.5216 92.1463 64.5216ZM123.135 69.9089H119.07L117.459 65.6294H109.99L108.439 69.9089H104.449L111.676 51.1214H115.667L123.135 69.9089ZM116.239 62.4577L113.649 55.5072L111.134 62.4577H116.239ZM125.213 51.1214H139.142V54.2931H128.993V58.6486H134.022C135.392 58.6486 136.552 58.8155 137.47 59.1645C138.374 59.4984 139.157 60.1358 139.804 61.0615C140.452 61.972 140.783 63.0495 140.783 64.2939C140.783 65.5535 140.452 66.6462 139.789 67.5567C139.142 68.4521 138.404 69.0743 137.561 69.4081C136.733 69.742 135.543 69.9089 134.007 69.9089H125.213V51.1214ZM128.993 66.722H132.652C133.811 66.722 134.64 66.6765 135.106 66.5551C135.588 66.4489 135.995 66.1909 136.356 65.7812C136.702 65.3714 136.868 64.8858 136.868 64.2939C136.868 63.4289 136.567 62.8067 135.95 62.4121C135.332 62.0176 134.293 61.8203 132.818 61.8203H128.993V66.722ZM143.84 69.9089V51.1214H149.878C152.167 51.1214 153.643 51.2125 154.335 51.4097C155.404 51.6829 156.308 52.3051 157.015 53.246C157.738 54.1869 158.1 55.4161 158.1 56.9034C158.1 58.0567 157.889 59.028 157.482 59.8171C157.061 60.5911 156.534 61.2133 155.901 61.6685C155.269 62.1086 154.621 62.4121 153.959 62.5487C153.055 62.7308 151.76 62.8219 150.059 62.8219H147.619V69.9089H143.84ZM147.619 54.2931V59.6502H149.667C151.143 59.6502 152.137 59.5439 152.634 59.3466C153.131 59.1494 153.522 58.8458 153.793 58.4209C154.079 58.0112 154.23 57.5256 154.23 56.9641C154.23 56.2812 154.019 55.7045 153.627 55.2644C153.236 54.8243 152.739 54.5359 152.122 54.4297C151.67 54.3387 150.782 54.2931 149.426 54.2931H147.619ZM161.247 51.1214H164.755V63.6262L172.314 51.1214H176.049V69.9089H172.54V57.6014L164.996 69.9089H161.247V51.1214ZM179.949 51.1214H183.728V59.119C184.556 59.0431 185.128 58.8155 185.43 58.4665C185.716 58.1174 186.183 57.1462 186.8 55.5375C187.568 53.5192 188.351 52.2444 189.149 51.7588C189.917 51.258 191.182 51.0152 192.913 51.0152C193.004 51.0152 193.184 51 193.455 51V53.8075L192.928 53.7923C192.145 53.7923 191.588 53.8834 191.227 54.0807C190.881 54.2628 190.594 54.5663 190.369 54.9609C190.143 55.3554 189.827 56.1597 189.39 57.3738C189.164 58.0264 188.923 58.5727 188.652 59.0128C188.381 59.4529 187.914 59.8626 187.237 60.242C188.065 60.4848 188.757 60.9704 189.3 61.6837C189.857 62.4121 190.459 63.4441 191.106 64.7644L193.636 69.9089H189.209L186.981 65.0679C186.95 64.992 186.875 64.8706 186.77 64.6733C186.725 64.6126 186.559 64.3091 186.303 63.7931C185.821 62.8674 185.43 62.2907 185.128 62.0479C184.812 61.8203 184.361 61.6989 183.728 61.6989V69.9089H179.949V51.1214ZM212.564 69.9089H208.498L206.887 65.6294H199.418L197.867 69.9089H193.877L201.12 51.1214H205.095L212.564 69.9089ZM205.667 62.4577L203.077 55.5072L200.563 62.4577H205.667ZM221.749 69.9089V51.1214H227.396L230.739 63.9297L234.036 51.1214H239.698V69.9089H236.22L236.205 55.1278L232.531 69.9089H228.902L225.243 55.1278V69.9089H221.749ZM243.478 69.9089V51.1214H257.271V54.2931H247.242V58.4665H256.563V61.6382H247.242V66.722H257.632V69.9089H243.478ZM260.915 51.1214H274.828V54.2931H264.679V58.6486H269.708C271.094 58.6486 272.238 58.8155 273.157 59.1645C274.075 59.4984 274.843 60.1358 275.491 61.0615C276.138 61.972 276.469 63.0495 276.469 64.2939C276.469 65.5535 276.138 66.6462 275.491 67.5567C274.843 68.4521 274.09 69.0743 273.262 69.4081C272.419 69.742 271.244 69.9089 269.693 69.9089H260.915V51.1214ZM264.679 66.722H268.338C269.498 66.722 270.326 66.6765 270.793 66.5551C271.274 66.4489 271.696 66.1909 272.042 65.7812C272.389 65.3714 272.569 64.8858 272.569 64.2939C272.569 63.4289 272.253 62.8067 271.651 62.4121C271.033 62.0176 269.979 61.8203 268.504 61.8203H264.679V66.722ZM279.526 69.9089V51.1214H293.319V54.2931H283.306V58.4665H292.626V61.6382H283.306V66.722H293.68V69.9089H279.526ZM298.228 51.1214H311.283V69.9089H307.504V54.2931H301.917V62.3211C301.917 64.6126 301.827 66.2061 301.676 67.1166C301.526 68.0272 301.164 68.7404 300.577 69.2412C299.975 69.7572 299.056 70 297.806 70C297.37 70 296.572 69.9696 295.412 69.8786V66.9345L296.24 66.9497C297.038 66.9497 297.565 66.8435 297.836 66.631C298.107 66.4185 298.243 65.8874 298.243 65.0527L298.228 61.8355V51.1214ZM315.198 51.1214H318.707V63.6262L326.251 51.1214H330V69.9089H326.492V57.6014L318.948 69.9089H315.198V51.1214Z" fill="#912926"/>
</svg>
