<svg width="212" height="46" viewBox="0 0 212 46" fill="none" xmlns="http://www.w3.org/2000/svg">
<path fill-rule="evenodd" clip-rule="evenodd" d="M11.1755 22.0784C12.2748 22.0784 13.3451 22.2506 14.3479 22.5645L15.341 20.9139C13.2004 18.7672 11.8698 15.7496 11.8698 12.4081C11.8698 5.92739 16.8935 0.641602 23.0453 0.641602C29.2068 0.641602 34.2305 5.92739 34.2305 12.4081C34.2305 15.699 32.9288 18.6761 30.846 20.8228L31.8585 22.5138C32.8806 22.1898 33.9605 22.0177 35.0694 22.0177C41.2309 22.0177 46.2546 27.3034 46.2546 33.7841C46.2546 40.2546 41.2309 45.5404 35.0694 45.5404C29.7371 45.5404 25.2631 41.5811 24.1542 36.3156H22.11C21.0204 41.6217 16.5271 45.6113 11.1755 45.6113C5.02369 45.6113 0 40.3255 0 33.8449C0 27.3642 5.02369 22.0784 11.1755 22.0784ZM22.11 36.3156H6.12292L14.3479 22.5645C17.1635 23.4454 19.4005 25.3997 20.789 27.8806C22.1775 30.3615 22.7175 33.3588 22.11 36.3156ZM31.8585 22.5138L40.1316 36.3156H24.1542C23.4985 33.1968 24.106 30.0172 25.6681 27.4553C27.0566 25.1567 29.2068 23.3543 31.8585 22.5138ZM30.846 20.8228C28.8308 22.8885 26.0827 24.1644 23.0453 24.1644C20.0658 24.1644 17.3467 22.929 15.341 20.9139L23.1225 7.91209L30.846 20.8228Z" fill="white"/>
<path fill-rule="evenodd" clip-rule="evenodd" d="M76.716 26.7915C76.716 26.5163 76.8031 24.845 76.5419 24.1724C75.8744 22.2668 74.1236 21.7674 74.1236 20.0146V8.46851C74.1236 6.74627 73.0692 5.51319 71.3474 5.51319H61.7515C60.1458 5.51319 58.985 7.05199 58.985 8.49908V16.3256C58.985 17.8032 58.4626 18.965 58.1918 19.7089C57.5824 21.37 55.1641 22.4808 54.7772 23.8973C54.516 24.9062 54.6321 27.036 54.6321 27.3418C54.6321 28.6054 54.1968 32.1212 56.8859 32.1212C58.2498 32.1212 58.956 30.7353 59.0721 30.3684C59.3042 29.5328 59.7976 27.8105 61.0261 27.7188C62.3706 27.6271 66.2786 27.5252 66.5688 27.5252C67.9908 27.5252 71.4054 27.464 71.7246 28.9825C72.1406 31.0104 72.5759 32.1212 74.5009 32.1212C77.0643 32.1212 76.716 28.422 76.716 26.7915ZM68.784 16.5396C68.784 17.8644 69.1032 22.8171 65.7466 22.8171C64.5568 22.8171 63.2122 22.2362 63.2122 20.8503C63.2122 19.8006 63.8216 18.9955 63.8216 17.3039V13.0543C63.8216 11.7703 64.7599 10.3844 66.2496 10.3844C68.9581 10.3844 68.784 13.8594 68.784 16.5396ZM99.6416 16.5396C99.6416 9.7933 95.0371 4.87117 88.4109 4.87117C82.1427 4.87117 77.1803 9.45701 77.1803 16.5396C77.1803 23.2451 81.7945 28.1774 88.4109 28.1774C94.6889 28.1774 99.6416 23.5916 99.6416 16.5396ZM93.9247 16.5396C93.9247 19.5866 92.2609 23.3368 88.4109 23.3368C84.3288 23.3368 82.8972 19.2503 82.8972 16.5396C82.8972 12.7486 85.0834 9.70159 88.4109 9.70159C92.464 9.70159 93.9247 13.7983 93.9247 16.5396ZM124.724 25.2527C124.724 24.9367 123.302 13.4008 122.335 7.55134C122.016 5.66605 120.352 5.51319 119.269 5.51319C118.775 5.51319 117.818 5.51319 117.053 5.98197C116.444 6.34883 116.096 7.266 115.951 7.67363C115.68 8.62137 115.273 10.0073 114.954 11.2098C114.606 12.5652 114.142 15.1231 113.087 16.3867C113 16.4784 112.739 16.7842 112.42 16.7842C112.101 16.7842 111.801 16.4784 111.714 16.3867C110.669 15.1231 110.205 12.5652 109.818 11.2098C109.528 10.0073 109.121 8.62137 108.831 7.67363C108.715 7.266 108.367 6.34883 107.748 5.98197C106.993 5.51319 106.026 5.51319 105.533 5.51319C104.459 5.51319 102.766 5.66605 102.476 7.55134C101.508 13.4008 100.077 24.9367 100.077 25.2527C100.077 26.6997 100.493 27.5252 102.321 27.5252C104.691 27.5252 104.836 26.2004 105.329 23.1534C105.591 21.4617 105.707 20.2286 106.181 18.8427C106.326 18.4147 106.79 18.1089 107.022 18.1089C108.193 18.1089 108.686 20.3509 109.266 22.6642C109.847 24.9979 110.785 27.5252 112.42 27.5252C114.055 27.5252 114.925 24.9979 115.535 22.6642C116.125 20.3509 116.589 18.1089 117.789 18.1089C118.021 18.1089 118.485 18.4147 118.601 18.8427C119.065 20.2286 119.21 21.4617 119.472 23.1534C119.975 26.2004 120.12 27.5252 122.48 27.5252C124.289 27.5252 124.724 26.6997 124.724 25.2527ZM147.621 16.5396C147.621 9.7933 143.016 4.87117 136.39 4.87117C130.122 4.87117 125.16 9.45701 125.16 16.5396C125.16 23.2451 129.774 28.1774 136.39 28.1774C142.668 28.1774 147.621 23.5916 147.621 16.5396ZM141.904 16.5396C141.904 19.5866 140.24 23.3368 136.39 23.3368C132.308 23.3368 130.876 19.2503 130.876 16.5396C130.876 12.7486 133.072 9.70159 136.39 9.70159C140.443 9.70159 141.904 13.7983 141.904 16.5396ZM166.609 21.4923C166.609 17.8338 163.785 17.151 163.785 15.5511C163.785 14.3486 165.39 13.5537 165.39 10.7512C165.39 7.36791 162.266 5.51319 159.848 5.51319H151.442C150.484 5.51319 149.372 6.22654 149.372 7.91821V25.4361C149.372 26.2615 150.107 27.5252 151.18 27.5252H160.718C164.336 27.5252 166.609 24.4782 166.609 21.4923ZM160.167 11.9537C160.167 13.89 158.097 14.4097 157.246 14.4097C155.756 14.4097 154.827 13.4314 154.827 11.9537C154.827 10.4455 155.756 9.45701 157.246 9.45701C158.3 9.45701 160.167 10.2213 160.167 11.9537ZM160.921 20.9114C160.921 23.1228 158.677 23.5916 157.507 23.5916C155.669 23.5916 154.827 22.6336 154.827 20.9725C154.827 18.965 156.027 18.3535 157.565 18.3535C158.851 18.3535 160.921 18.965 160.921 20.9114ZM190.241 16.5396C190.241 9.7933 185.627 4.87117 179.01 4.87117C172.732 4.87117 167.78 9.45701 167.78 16.5396C167.78 23.2451 172.384 28.1774 179.01 28.1774C185.279 28.1774 190.241 23.5916 190.241 16.5396ZM184.524 16.5396C184.524 19.5866 182.86 23.3368 179.01 23.3368C174.928 23.3368 173.497 19.2503 173.497 16.5396C173.497 12.7486 175.683 9.70159 179.01 9.70159C183.063 9.70159 184.524 13.7983 184.524 16.5396ZM206.395 0.988502C206.395 0.254769 205.757 0 205.138 0C204.093 0 203.097 0.927358 201.675 0.927358C200.069 0.927358 199.102 0 198.144 0C197.525 0 196.828 0.254769 196.828 0.988502C196.828 3.33237 201.056 3.42409 201.675 3.42409C202.081 3.42409 206.395 3.08779 206.395 0.988502ZM211.358 24.9367V8.10164C211.358 5.98197 209.317 5.51319 208.32 5.51319C207.179 5.51319 206.192 5.60491 205.428 6.50169C204.354 7.82649 203.271 9.67101 202.69 10.6595C202.429 11.1181 199.75 16.3867 198.318 16.3867C197.322 16.3867 197.061 14.5931 197.061 13.8594V7.85706C197.061 6.28769 195.958 5.51319 194.526 5.51319C193.849 5.51319 191.982 6.07368 191.982 7.91821V25.1304C191.982 27.0666 193.646 27.5252 194.845 27.5252C195.774 27.5252 196.944 27.5252 197.554 26.822C199.663 24.3253 200.94 21.7063 202.487 19.1178C202.806 18.5675 203.832 16.5396 204.964 16.5396C206.105 16.5396 206.134 17.8644 206.134 18.6287V24.9673C206.134 26.5367 207.005 27.5252 208.726 27.5252C209.984 27.5252 211.358 27.0666 211.358 24.9367Z" fill="white"/>
<path d="M61.5767 43.4874V44.9108H59.197V43.4874C57.2816 43.4191 55.937 42.9414 55.1535 42.064C54.3602 41.1865 53.9636 40.0849 53.9636 38.759C53.9636 37.3648 54.3796 36.2534 55.2018 35.415C56.0241 34.5668 57.359 34.1086 59.197 34.0403V32.8412H61.5767V34.0403C63.4727 34.1086 64.8173 34.5863 65.6202 35.454C66.4134 36.3217 66.8101 37.4331 66.8101 38.7687C66.8101 40.0946 66.4134 41.1963 65.6202 42.0737C64.827 42.9512 63.4824 43.4191 61.5767 43.4874ZM61.5767 41.4498C62.2055 41.4498 62.7472 41.3425 63.2115 41.128C63.6662 40.9233 63.9854 40.6308 64.1789 40.2701C64.3723 39.9094 64.4691 39.3829 64.4691 38.6907C64.4691 36.9456 63.5017 36.0779 61.5767 36.0779V41.4498ZM59.197 41.4498V36.0779C58.1813 36.0779 57.4461 36.3022 56.9914 36.7604C56.5368 37.2186 56.3046 37.9108 56.3046 38.837C56.3046 40.5821 57.272 41.4498 59.197 41.4498ZM79.1051 44.9108H76.4933L75.4582 42.1615H70.6601L69.6638 44.9108H67.1003L71.7436 32.8412H74.307L79.1051 44.9108ZM74.6746 40.1239L73.0108 35.6587L71.3953 40.1239H74.6746ZM80.4401 32.8412H89.3881V34.8788H82.8681V37.6768H86.0991C86.9794 37.6768 87.7242 37.784 88.3143 38.0083C88.8947 38.2228 89.3977 38.6322 89.8137 39.2269C90.2297 39.8119 90.4425 40.5041 90.4425 41.3035C90.4425 42.1127 90.2297 42.8147 89.804 43.3996C89.3881 43.9748 88.9141 44.3745 88.3724 44.589C87.8403 44.8035 87.0761 44.9108 86.0894 44.9108H80.4401V32.8412ZM82.8681 42.8634H85.2188C85.9636 42.8634 86.4957 42.8342 86.7956 42.7562C87.1051 42.6879 87.3663 42.5222 87.5985 42.259C87.821 41.9957 87.9274 41.6837 87.9274 41.3035C87.9274 40.7478 87.7339 40.3481 87.3373 40.0946C86.9407 39.8411 86.2732 39.7144 85.3252 39.7144H82.8681V42.8634ZM92.4062 44.9108V32.8412H96.2853C97.7557 32.8412 98.7037 32.8997 99.1487 33.0264C99.8355 33.2019 100.416 33.6016 100.871 34.2061C101.335 34.8105 101.567 35.6002 101.567 36.5556C101.567 37.2966 101.432 37.9205 101.17 38.4275C100.9 38.9247 100.561 39.3244 100.155 39.6169C99.7484 39.8996 99.3325 40.0946 98.9068 40.1824C98.3264 40.2994 97.4945 40.3579 96.4014 40.3579H94.8343V44.9108H92.4062ZM94.8343 34.8788V38.3203H96.1499C97.0979 38.3203 97.7363 38.252 98.0555 38.1253C98.3748 37.9985 98.6263 37.8035 98.8004 37.5306C98.9842 37.2673 99.0809 36.9554 99.0809 36.5946C99.0809 36.1559 98.9455 35.7855 98.694 35.5027C98.4425 35.22 98.1233 35.0348 97.7266 34.9665C97.4364 34.908 96.8657 34.8788 95.9951 34.8788H94.8343ZM103.589 32.8412H105.843V40.8746L110.699 32.8412H113.098V44.9108H110.844V37.0041L105.998 44.9108H103.589V32.8412ZM115.603 32.8412H118.031V37.979C118.563 37.9303 118.931 37.784 119.124 37.5598C119.308 37.3356 119.608 36.7116 120.005 35.6782C120.498 34.3816 121.001 33.5626 121.514 33.2506C122.007 32.9289 122.82 32.7729 123.932 32.7729C123.99 32.7729 124.106 32.7632 124.28 32.7632V34.5668L123.942 34.557C123.439 34.557 123.081 34.6155 122.849 34.7423C122.626 34.8593 122.443 35.0543 122.297 35.3077C122.152 35.5612 121.949 36.0779 121.669 36.8579C121.524 37.2771 121.369 37.6281 121.195 37.9108C121.02 38.1935 120.721 38.4567 120.285 38.7005C120.817 38.8565 121.262 39.1684 121.611 39.6267C121.969 40.0946 122.355 40.7576 122.771 41.6058L124.397 44.9108H121.553L120.121 41.8007C120.102 41.752 120.053 41.674 119.985 41.5473C119.956 41.5083 119.85 41.3133 119.686 40.9818C119.376 40.3871 119.124 40.0166 118.931 39.8606C118.728 39.7144 118.438 39.6364 118.031 39.6364V44.9108H115.603V32.8412ZM136.556 44.9108H133.944L132.909 42.1615H128.111L127.115 44.9108H124.551L129.204 32.8412H131.758L136.556 44.9108ZM132.126 40.1239L130.462 35.6587L128.846 40.1239H132.126ZM142.457 44.9108V32.8412H146.085L148.232 41.0695L150.351 32.8412H153.988V44.9108H151.753L151.744 35.415L149.383 44.9108H147.052L144.701 35.415V44.9108H142.457ZM156.416 44.9108V32.8412H165.277V34.8788H158.834V37.5598H164.822V39.5974H158.834V42.8634H165.509V44.9108H156.416ZM167.618 32.8412H176.556V34.8788H170.036V37.6768H173.267C174.157 37.6768 174.892 37.784 175.482 38.0083C176.073 38.2228 176.566 38.6322 176.982 39.2269C177.398 39.8119 177.611 40.5041 177.611 41.3035C177.611 42.1127 177.398 42.8147 176.982 43.3996C176.566 43.9748 176.082 44.3745 175.55 44.589C175.008 44.8035 174.254 44.9108 173.258 44.9108H167.618V32.8412ZM170.036 42.8634H172.387C173.132 42.8634 173.664 42.8342 173.964 42.7562C174.273 42.6879 174.544 42.5222 174.767 42.259C174.989 41.9957 175.105 41.6837 175.105 41.3035C175.105 40.7478 174.902 40.3481 174.515 40.0946C174.118 39.8411 173.441 39.7144 172.493 39.7144H170.036V42.8634ZM179.574 44.9108V32.8412H188.435V34.8788H182.002V37.5598H187.99V39.5974H182.002V42.8634H188.667V44.9108H179.574ZM191.589 32.8412H199.976V44.9108H197.548V34.8788H193.959V40.0361C193.959 41.5083 193.901 42.5319 193.804 43.1169C193.707 43.7018 193.475 44.1601 193.098 44.4818C192.711 44.8133 192.121 44.9692 191.318 44.9692C191.037 44.9692 190.525 44.9497 189.78 44.8913V42.9999L190.312 43.0096C190.825 43.0096 191.163 42.9414 191.337 42.8049C191.511 42.6684 191.599 42.3272 191.599 41.791L191.589 39.7241V32.8412ZM202.491 32.8412H204.745V40.8746L209.591 32.8412H212V44.9108H209.746V37.0041L204.9 44.9108H202.491V32.8412Z" fill="white"/>
</svg>
